<?xml version="1.0" encoding="UTF-8"?>
<!-- Generated by Pixelmator Pro 3.8 -->
<svg width="1024" height="1024" viewBox="0 0 1024 1024" xmlns="http://www.w3.org/2000/svg">
    <g id="AppIconSafeArea">
        <path id="Path" fill="#05080b" stroke="none" d="M 233.679993 72 L 790.960022 72 C 880.253418 72 952.640015 144.386597 952.640015 233.679993 L 952.640015 790.960022 C 952.640015 880.253418 880.253418 952.640015 790.960022 952.640015 L 233.679993 952.640015 C 144.386597 952.640015 72 880.253418 72 790.960022 L 72 233.679993 C 72 144.386597 144.386597 72 233.679993 72 Z"/>
        <path id="path1" fill="#0c1116" stroke="none" d="M 238.839996 96.080017 L 785.799988 96.080017 C 864.644165 96.080017 928.559998 159.99585 928.559998 238.840027 L 928.559998 785.799988 C 928.559998 864.644165 864.644165 928.559998 785.799988 928.559998 L 238.839996 928.559998 C 159.995834 928.559998 96.080002 864.644165 96.080002 785.799988 L 96.080002 238.840027 C 96.080002 159.99585 159.995834 96.080017 238.839996 96.080017 Z"/>
        <path id="path2" fill="#121820" stroke="none" d="M 108.120003 763.440002 C 190.679993 880.400024 342.040009 925.119995 510.600006 894.160034 C 672.280029 864.919983 825.359985 765.160034 906.200012 577.679993 L 906.200012 775.47998 C 906.200012 847.719971 847.719971 906.200012 775.47998 906.200012 L 249.160004 906.200012 C 187.240005 906.200012 135.639999 863.200012 121.879997 806.440002 Z"/>
        <path id="path3" fill="none" stroke="#343a42" stroke-width="8.6" d="M 238.839996 96.080017 L 785.799988 96.080017 C 864.644165 96.080017 928.559998 159.99585 928.559998 238.840027 L 928.559998 785.799988 C 928.559998 864.644165 864.644165 928.559998 785.799988 928.559998 L 238.839996 928.559998 C 159.995834 928.559998 96.080002 864.644165 96.080002 785.799988 L 96.080002 238.840027 C 96.080002 159.99585 159.995834 96.080017 238.839996 96.080017 Z"/>
        <g id="Group">
            <text id="Th" xml:space="preserve" x="204" y="356" font-family="Verdana" font-size="161.68" font-weight="700" fill="#f4f5f6" letter-spacing="1">Th</text>
            <text id="S" xml:space="preserve" x="425" y="356" font-family="Verdana" font-size="161.68" font-weight="700" fill="#ffd42a" letter-spacing="1">S</text>
        </g>
        <clipPath id="clipPath1">
            <path d="M 238.839996 96.080017 L 785.799973 96.080017 C 864.64415 96.080017 928.559982 159.99585 928.559982 238.840027 L 928.559982 785.799988 C 928.559982 864.644165 864.64415 928.559998 785.799973 928.559998 L 238.839996 928.559998 C 159.995834 928.559998 96.080002 864.644165 96.080002 785.799988 L 96.080002 238.840027 C 96.080002 159.99585 159.995834 96.080017 238.839996 96.080017 Z"/>
        </clipPath>
        <g id="g1" clip-path="url(#clipPath1)">
            <path id="path4" fill="none" stroke="#88909a" stroke-width="29.24" stroke-linecap="round" stroke-linejoin="round" opacity="0.32" d="M 54.799999 667.119995 L 118.440002 636.160034 L 159.720001 641.320007 L 190.679993 624.119995 L 219.919998 618.959961 L 240.559998 593.160034 L 276.679993 593.160034 L 295.600006 574.23999 L 305.920013 536.400024 L 340.320007 510.599976 L 373 508.880005 L 407.399994 532.959961 L 441.799988 522.640015 L 476.200012 522.640015 L 519.200012 489.960022 L 560.47998 489.960022 L 613.799988 460.719971 L 625.840027 419.440002 L 665.400024 373 L 710.119995 364.400024 L 725.599976 340.320007 L 735.919983 299.039978 L 768.599976 276.679993 L 806.440002 276.679993 L 842.559998 254.320007 L 858.039978 216.47998 L 899.320007 201 L 928.559998 175.200012 L 969.840027 154.559998"/>
            <path id="path5" fill="none" stroke="#aeb4bb" stroke-width="15.48" stroke-linecap="round" stroke-linejoin="round" opacity="0.78" d="M 54.799999 667.119995 L 118.440002 636.160034 L 159.720001 641.320007 L 190.679993 624.119995 L 219.919998 618.959961 L 240.559998 593.160034 L 276.679993 593.160034 L 295.600006 574.23999 L 305.920013 536.400024 L 340.320007 510.599976 L 373 508.880005 L 407.399994 532.959961 L 441.799988 522.640015 L 476.200012 522.640015 L 519.200012 489.960022 L 560.47998 489.960022 L 613.799988 460.719971 L 625.840027 419.440002 L 665.400024 373 L 710.119995 364.400024 L 725.599976 340.320007 L 735.919983 299.039978 L 768.599976 276.679993 L 806.440002 276.679993 L 842.559998 254.320007 L 858.039978 216.47998 L 899.320007 201 L 928.559998 175.200012 L 969.840027 154.559998"/>
            <path id="path6" fill="none" stroke="#88909a" stroke-width="29.24" stroke-linecap="round" stroke-linejoin="round" opacity="0.3" d="M 78.879997 899.799988 L 151.119995 872.280029 L 180.360001 843.039978 L 235.399994 831 L 276.679993 839.599976 L 323.119995 820.679993 L 338.600006 791.440002 L 376.440002 753.599976 L 441.799988 758.76001 L 486.519989 739.839966 L 519.200012 708.880005 L 569.080017 710.599976 L 612.080017 732.959961 L 646.47998 734.679993 L 684.320007 765.640015 L 691.200012 810.359985 L 737.640015 822.400024 L 765.159973 855.080017 L 818.47998 855.080017 L 854.599976 887.76001 L 909.640015 913.559998 L 964.679993 953.119995"/>
            <path id="path7" fill="none" stroke="#aeb4bb" stroke-width="15.48" stroke-linecap="round" stroke-linejoin="round" opacity="0.75" d="M 54.799999 910.97998 L 151.119995 872.280029 L 180.360001 843.039978 L 235.399994 831 L 276.679993 839.599976 L 323.119995 820.679993 L 338.600006 791.440002 L 376.440002 753.599976 L 441.799988 758.76001 L 486.519989 739.839966 L 519.200012 708.880005 L 569.080017 710.599976 L 612.080017 732.959961 L 646.47998 734.679993 L 684.320007 765.640015 L 691.200012 810.359985 L 737.640015 822.400024 L 765.159973 855.080017 L 818.47998 855.080017 L 854.599976 887.76001 L 909.640015 913.559998 L 964.679993 953.119995"/>
            <path id="path8" fill="none" stroke="#88909a" stroke-width="27.52" stroke-linecap="round" stroke-linejoin="round" opacity="0.28" d="M 952.640015 446.960022 L 879.539978 483.080017 L 821.059998 539.839966 L 779.780029 564.780029 L 814.179993 638.73999 L 875.23999 661.959961 L 890.719971 703.23999 L 930.280029 708.400024 L 968.119995 742.799988 L 992.200012 753.119995"/>
            <path id="path9" fill="none" stroke="#aeb4bb" stroke-width="14.62" stroke-linecap="round" stroke-linejoin="round" opacity="0.72" d="M 975 440.080017 L 882.97998 482.219971 L 820.200012 539.839966 C 820.200012 539.839966 770.353882 558.676331 783.219971 577.679993 C 792.776733 591.795532 814.179993 638.73999 814.179993 638.73999 L 875.23999 661.959961 L 890.719971 703.23999 L 930.280029 708.400024 L 968.119995 742.799988 L 992.200012 753.119995"/>
        </g>
        <g id="g2">
            <path id="path10" fill="none" stroke="#5c4704" stroke-width="46.439999" stroke-linecap="round" stroke-linejoin="round" opacity="0.42" d="M 46.200001 785.799988 L 188.960007 730.76001 L 391.920013 646.47998 L 631 593.160034 L 825.359985 409.119995 L 975 314.52002"/>
            <path id="path11" fill="none" stroke="#ffd42a" stroke-width="29.24" stroke-linecap="round" stroke-linejoin="round" d="M 46.200001 785.799988 L 188.960007 730.76001 L 391.920013 646.47998 L 631 593.160034 L 825.359985 409.119995 L 975 314.52002"/>
            <path id="path12" fill="none" stroke="#5c4704" stroke-width="46.439999" stroke-linecap="round" stroke-linejoin="round" opacity="0.42" d="M 631 593.160034 L 803 744.52002 L 992.200012 851.160034"/>
            <path id="path13" fill="none" stroke="#ffd42a" stroke-width="29.24" stroke-linecap="round" stroke-linejoin="round" d="M 631 593.160034 L 803 744.52002 L 992.200012 851.160034"/>
        </g>
        <g id="g3">
            <path id="path14" fill="#0c1116" stroke="#ffd42a" stroke-width="20.449581" d="M 251.293945 720.886536 C 251.293945 739.999451 235.799881 755.49353 216.686981 755.49353 C 197.574066 755.49353 182.080002 739.999451 182.080002 720.886536 C 182.080002 701.773621 197.574066 686.279541 216.686981 686.279541 C 235.799881 686.279541 251.293945 701.773621 251.293945 720.886536 Z"/>
            <path id="path15" fill="#0c1116" stroke="#ffd42a" stroke-width="20.449581" d="M 432.194092 643.807373 C 432.194092 660.313965 418.812805 673.695251 402.306244 673.695251 C 385.799652 673.695251 372.418396 660.313965 372.418396 643.807373 C 372.418396 627.300781 385.799652 613.919556 402.306244 613.919556 C 418.812805 613.919556 432.194092 627.300781 432.194092 643.807373 Z"/>
            <path id="path16" fill="#0c1116" stroke="#ffd42a" stroke-width="20.449581" d="M 669.723755 595.04303 C 669.723755 621.974731 647.891235 643.807373 620.959473 643.807373 C 594.027588 643.807373 572.195068 621.974731 572.195068 595.04303 C 572.195068 568.111206 594.027588 546.278687 620.959473 546.278687 C 647.891235 546.278687 669.723755 568.111206 669.723755 595.04303 Z"/>
            <path id="path17" fill="#0c1116" stroke="#ffd42a" stroke-width="20.449581" d="M 835.679993 426.727234 C 835.679993 447.143311 819.129517 463.693787 798.71344 463.693787 C 778.297424 463.693787 761.746948 447.143311 761.746948 426.727234 C 761.746948 406.311157 778.297424 389.760681 798.71344 389.760681 C 819.129517 389.760681 835.679993 406.311157 835.679993 426.727234 Z"/>
            <path id="path18" fill="#0c1116" stroke="#ffd42a" stroke-width="20.449581" d="M 811.297791 733.470947 C 811.297791 751.715088 796.507996 766.504883 778.263855 766.504883 C 760.019653 766.504883 745.229919 751.715088 745.229919 733.470947 C 745.229919 715.226685 760.019653 700.43689 778.263855 700.43689 C 796.507996 700.43689 811.297791 715.226685 811.297791 733.470947 Z"/>
        </g>
        <path id="path19" fill="#ffd42a" stroke="none" d="M 643.039978 594.880005 C 643.039978 607.229065 633.029053 617.23999 620.679993 617.23999 C 608.330933 617.23999 598.320007 607.229065 598.320007 594.880005 C 598.320007 582.530945 608.330933 572.52002 620.679993 572.52002 C 633.029053 572.52002 643.039978 582.530945 643.039978 594.880005 Z"/>
    </g>
</svg>
